<svg width="736" height="95" viewBox="0 0 736 95" fill="none" xmlns="http://www.w3.org/2000/svg">
<path d="M42.8 71.7V54.5L25.1 44.6L42.8 35.6V17.8L2.83122e-07 42.9V46.6L42.8 71.7ZM692.909 71.6L735.709 46.5V42.9L692.909 17.7V34.9L710.609 44.8L692.909 53.9V71.6Z" fill="#1962D5"/>
<path d="M78.5672 59.6V22.9H82.2672C93.2672 22.9 98.1672 27.7 98.1672 40.8V41.6C98.1672 54.1 93.4672 59.6 82.3672 59.6H78.5672ZM55.8672 77H83.1672C108.367 77 121.767 63.9 121.767 41.1V40.4C121.767 17.7 108.767 5.5 83.1672 5.5H55.8672V77ZM145.777 78.3C154.277 78.3 158.877 74.6 161.077 71V77H180.077V43.2C180.077 29.4 170.877 23.2 155.677 23.2C140.677 23.2 130.677 29.7 129.877 42.5H148.277C148.577 39.8 149.977 36.9 154.477 36.9C159.777 36.9 160.577 40.1 160.577 44.5V45.4H156.077C137.977 45.4 127.977 50.2 127.977 62.5C127.977 73.7 136.377 78.3 145.777 78.3ZM152.877 65.1C149.277 65.1 147.377 63.5 147.377 61C147.377 57.3 149.777 56 156.377 56H160.577V58.7C160.577 62.6 157.377 65.1 152.877 65.1ZM191.173 77H210.873V48.1C210.873 41.9 213.773 39 218.673 39C223.373 39 225.273 41.7 225.273 47V77H244.973V42.6C244.973 29.6 238.073 23.3 228.173 23.3C219.373 23.3 213.773 27.6 210.873 33.1V24.7H191.173V77ZM256.663 77H276.263V24.7H256.663V77ZM266.463 20.8C272.463 20.8 277.063 16.6 277.063 10.9C277.063 5.1 272.463 0.899996 266.463 0.899996C260.363 0.899996 255.763 5.1 255.763 10.9C255.763 16.6 260.363 20.8 266.463 20.8ZM314.737 78.3C331.337 78.3 340.437 71.3 342.037 59.3H323.637C323.037 62.3 320.937 64.9 315.437 64.9C309.837 64.9 306.137 61.5 305.637 55.2H341.937V50.4C341.937 31.6 329.437 23.2 314.737 23.2C298.737 23.2 285.737 33.7 285.737 50.7V51.5C285.737 68.8 298.037 78.3 314.737 78.3ZM305.737 44.9C306.537 39 309.937 35.9 314.737 35.9C320.037 35.9 322.737 39.3 322.937 44.9H305.737ZM351.188 77H370.788V1.99999H351.188V77ZM399.326 77H420.426L423.626 65.1H446.226L449.526 77H473.526L451.126 5.5H421.826L399.326 77ZM435.026 23.8L442.026 49.7H427.926L435.026 23.8ZM482.759 94.4H501.459L529.359 24.7H510.759L501.559 50.8L491.659 24.7H470.359L491.259 71.8L482.759 94.4ZM559.893 78.3C576.493 78.3 585.593 71.3 587.193 59.3H568.793C568.193 62.3 566.093 64.9 560.593 64.9C554.993 64.9 551.293 61.5 550.793 55.2H587.093V50.4C587.093 31.6 574.593 23.2 559.893 23.2C543.893 23.2 530.893 33.7 530.893 50.7V51.5C530.893 68.8 543.193 78.3 559.893 78.3ZM550.893 44.9C551.693 39 555.093 35.9 559.893 35.9C565.193 35.9 567.893 39.3 568.093 44.9H550.893ZM595.845 77H615.545V48.1C615.545 41.9 618.445 39 623.345 39C628.045 39 629.945 41.7 629.945 47V77H649.645V42.6C649.645 29.6 642.745 23.3 632.845 23.3C624.045 23.3 618.445 27.6 615.545 33.1V24.7H595.845V77ZM661.335 77H680.935V24.7H661.335V77ZM671.135 20.8C677.135 20.8 681.735 16.6 681.735 10.9C681.735 5.1 677.135 0.899996 671.135 0.899996C665.035 0.899996 660.435 5.1 660.435 10.9C660.435 16.6 665.035 20.8 671.135 20.8Z" fill="#444141"/>
</svg>
